<svg width="1080" height="1080" viewBox="0 0 1080 1080" fill="none" xmlns="http://www.w3.org/2000/svg">
<path d="M540 0L944.856 270V810L540 1080L135.144 810V270L540 0Z" fill="url(#paint0_linear_1_2)"/>
<path d="M540 108L881.711 334.5V787.5L540 1014L198.289 787.5V334.5L540 108Z" fill="#0F1419"/>
<path d="M540 162L855.567 372V792L540 1002L224.433 792V372L540 162Z" fill="url(#paint1_linear_1_2)"/>
<path d="M540 216L829.422 409.5V754.5L540 948L250.578 754.5V409.5L540 216Z" fill="#0F1419"/>
<g filter="url(#filter0_d_1_2)">
<path d="M450 420H570V480H510V540H570V600H450V660H570V720H390V360H570V420H450Z" fill="white"/>
<path d="M630 660V720H750V660H690V600H750V540H690V480H750V420H630V360H810V420H750V480H810V540H750V600H810V660H750V720H810V780H630V660Z" fill="white"/>
</g>
<defs>
<filter id="filter0_d_1_2" x="386" y="360" width="428" height="428" filterUnits="userSpaceOnUse" color-interpolation-filters="sRGB">
<feFlood flood-opacity="0" result="BackgroundImageFix"/>
<feColorMatrix in="SourceAlpha" type="matrix" values="0 0 0 0 0 0 0 0 0 0 0 0 0 0 0 0 0 0 127 0" result="hardAlpha"/>
<feOffset dy="4"/>
<feGaussianBlur stdDeviation="2"/>
<feComposite in2="hardAlpha" operator="out"/>
<feColorMatrix type="matrix" values="0 0 0 0 0 0 0 0 0 0.901961 0 0 0 0 0.901961 0 0 0 0.25 0"/>
<feBlend mode="normal" in2="BackgroundImageFix" result="effect1_dropShadow_1_2"/>
<feBlend mode="normal" in="SourceGraphic" in2="effect1_dropShadow_1_2" result="shape"/>
</filter>
<linearGradient id="paint0_linear_1_2" x1="135.144" y1="540" x2="944.856" y2="540" gradientUnits="userSpaceOnUse">
<stop stop-color="#00E6E6"/>
<stop offset="0.5" stop-color="#7B2FF7"/>
<stop offset="1" stop-color="#FF00FF"/>
</linearGradient>
<linearGradient id="paint1_linear_1_2" x1="224.433" y1="582" x2="855.567" y2="582" gradientUnits="userSpaceOnUse">
<stop stop-color="#00E6E6"/>
<stop offset="0.5" stop-color="#5D21B8"/>
<stop offset="1" stop-color="#CC00CC"/>
</linearGradient>
</defs>
</svg>
