<svg xmlns="http://www.w3.org/2000/svg" xmlns:xlink="http://www.w3.org/1999/xlink" width="1080" zoomAndPan="magnify" viewBox="0 0 810 809.999993" height="1080" preserveAspectRatio="xMidYMid meet" version="1.0"><path fill="#000000" d="M 396.355469 23.757812 C 392.558594 26.167969 384.425781 31.21875 378.277344 34.984375 C 370.558594 39.722656 362.859375 44.488281 355.175781 49.28125 C 342.617188 57.128906 319.035156 71.609375 308.03125 78.234375 C 304.445312 80.394531 297.109375 84.964844 291.726562 88.394531 C 286.347656 91.824219 276.808594 97.738281 270.53125 101.539062 C 264.253906 105.339844 254.128906 111.628906 248.03125 115.519531 C 237.515625 122.222656 233.480469 124.710938 209.042969 139.566406 C 203.382812 143.007812 197.511719 146.667969 196 147.699219 C 194.484375 148.730469 186.496094 153.765625 178.246094 158.886719 C 169.996094 164.007812 159.871094 170.332031 155.746094 172.941406 C 151.621094 175.550781 136.507812 185.003906 122.160156 193.953125 C 107.8125 202.898438 92.65625 212.394531 88.484375 215.050781 C 84.3125 217.707031 79.546875 220.679688 77.886719 221.660156 L 74.875 223.4375 L 74.875 606.0625 L 77.648438 607.597656 C 81.417969 609.683594 109.238281 626.507812 118.898438 632.539062 C 123.203125 635.226562 131.125 640.046875 136.507812 643.257812 C 173.257812 665.160156 225.308594 696.800781 244.117188 708.671875 C 250.214844 712.519531 257.40625 716.941406 260.097656 718.496094 C 262.785156 720.054688 273.058594 726.351562 282.921875 732.496094 C 292.789062 738.640625 304.820312 746.097656 309.664062 749.066406 C 324.457031 758.140625 355.8125 777.582031 378.140625 791.527344 C 405.695312 808.734375 403.84375 807.726562 405.679688 806.554688 C 406.496094 806.035156 410.480469 803.75 414.53125 801.480469 C 418.582031 799.207031 423.863281 796.085938 426.269531 794.546875 C 433.886719 789.667969 487.109375 756.886719 507.929688 744.25 C 512.769531 741.308594 522.308594 735.441406 529.125 731.203125 C 536.996094 726.316406 544.878906 721.441406 552.773438 716.589844 C 558.964844 712.785156 569.234375 706.476562 575.597656 702.5625 C 581.960938 698.652344 595.238281 690.558594 605.105469 684.570312 C 630.746094 669.015625 702.359375 625.347656 712.390625 619.152344 C 717.050781 616.273438 723.441406 612.320312 726.585938 610.371094 C 729.730469 608.417969 732.601562 606.265625 732.96875 605.585938 C 733.410156 604.757812 733.605469 541.304688 733.558594 412.90625 L 733.488281 221.46875 L 731.089844 219.945312 C 722.632812 214.585938 703.53125 202.84375 698.039062 199.632812 C 694.453125 197.535156 686.96875 192.902344 681.410156 189.339844 C 675.851562 185.777344 659.5625 175.613281 645.214844 166.753906 C 610.964844 145.609375 605.6875 142.324219 585.125 129.371094 C 575.570312 123.355469 559.207031 113.257812 548.765625 106.933594 C 538.320312 100.609375 527.632812 93.996094 525.011719 92.234375 C 522.390625 90.46875 513 84.683594 504.140625 79.375 C 495.285156 74.066406 483.488281 66.847656 477.925781 63.335938 C 472.367188 59.828125 464.589844 54.988281 460.644531 52.585938 C 456.699219 50.179688 446.867188 44.160156 438.796875 39.207031 C 418.339844 26.648438 405.636719 19.328125 404.347656 19.355469 C 403.746094 19.367188 400.148438 21.347656 396.355469 23.757812 M 398.304688 98.460938 C 394.570312 100.726562 387.257812 105.222656 382.054688 108.453125 C 376.855469 111.679688 368.488281 116.777344 363.46875 119.773438 C 358.445312 122.773438 349.789062 128.050781 344.230469 131.503906 C 337.175781 135.871094 330.109375 140.222656 323.03125 144.550781 C 316.933594 148.277344 304.019531 156.210938 294.335938 162.179688 C 284.652344 168.152344 270.417969 176.804688 262.707031 181.410156 C 253.34375 187.007812 243.996094 192.628906 234.660156 198.273438 C 226.949219 202.941406 211.980469 211.941406 201.398438 218.269531 C 183.300781 229.09375 173.234375 235.296875 157.050781 245.605469 C 153.285156 248.007812 148.054688 251.222656 145.425781 252.757812 L 140.644531 255.542969 L 140.816406 412.824219 L 140.992188 570.105469 L 142.738281 571.738281 C 144.324219 573.214844 157.878906 581.542969 189.660156 600.5625 C 200.183594 606.863281 221.644531 619.925781 271.183594 650.179688 C 281.765625 656.644531 294.679688 664.472656 299.878906 667.582031 C 305.082031 670.6875 316.820312 677.871094 325.96875 683.550781 C 344.320312 694.9375 355.03125 701.546875 376.511719 714.742188 C 384.402344 719.589844 393.917969 725.496094 397.652344 727.867188 C 401.386719 730.234375 405.074219 732.175781 405.847656 732.175781 C 406.621094 732.175781 411.929688 729.195312 417.644531 725.550781 C 423.359375 721.90625 431.261719 716.957031 435.210938 714.546875 C 439.15625 712.140625 447.519531 707.007812 453.796875 703.136719 C 460.074219 699.265625 468.4375 694.1875 472.382812 691.847656 C 476.328125 689.503906 484.253906 684.652344 489.992188 681.0625 C 495.730469 677.472656 505.417969 671.550781 511.515625 667.902344 C 532.859375 655.140625 541.582031 649.828125 549.992188 644.476562 C 562.402344 636.585938 579.328125 626.1875 589.957031 619.933594 C 595.074219 616.921875 606.816406 609.789062 616.042969 604.089844 C 631.9375 594.265625 650.800781 582.902344 660.867188 577.082031 C 663.375 575.628906 665.953125 574.050781 666.589844 573.574219 C 667.691406 572.75 667.742188 565.222656 667.722656 413.960938 C 667.703125 298.03125 667.5 254.976562 666.96875 254.335938 C 666.011719 253.183594 644.832031 239.925781 628.257812 230.109375 C 624.3125 227.769531 616.09375 222.78125 609.996094 219.019531 C 603.898438 215.257812 591.277344 207.492188 581.953125 201.765625 C 572.625 196.042969 560.59375 188.644531 555.210938 185.332031 C 549.832031 182.019531 535.890625 173.523438 524.234375 166.445312 C 512.574219 159.371094 497.3125 150.054688 490.320312 145.742188 C 476.265625 137.085938 461.3125 127.957031 438.144531 113.902344 C 429.714844 108.785156 419.117188 102.292969 414.589844 99.46875 C 410.066406 96.644531 406.082031 94.335938 405.734375 94.335938 C 405.382812 94.335938 402.042969 96.191406 398.304688 98.460938 M 423.570312 163.304688 C 422.902344 173.398438 423.082031 667.804688 423.753906 668.867188 C 424.523438 670.082031 427.542969 668.535156 442.382812 659.351562 C 458.757812 649.210938 475.171875 639.132812 491.625 629.117188 C 499.695312 624.203125 511.140625 617.164062 517.058594 613.46875 C 522.976562 609.773438 531.339844 604.640625 535.644531 602.0625 C 539.949219 599.480469 551.835938 592.296875 562.058594 586.09375 C 592.425781 567.667969 600.824219 562.589844 614.886719 554.144531 C 622.238281 549.726562 628.523438 545.875 628.847656 545.582031 C 629.429688 545.0625 629.4375 459.546875 628.855469 458.964844 C 628.222656 458.332031 628.5 458.167969 582.277344 486.09375 C 572.773438 491.832031 556.484375 501.800781 546.082031 508.238281 C 535.679688 514.679688 522.910156 522.402344 517.710938 525.40625 C 512.507812 528.410156 506.902344 531.667969 505.253906 532.648438 L 502.253906 534.429688 L 501.832031 525.203125 C 501.34375 514.46875 501.246094 289.992188 501.734375 289.992188 C 501.914062 289.992188 506.386719 292.738281 511.679688 296.097656 C 516.96875 299.457031 524.378906 303.976562 528.144531 306.140625 C 531.914062 308.300781 538.664062 312.347656 543.144531 315.125 C 547.628906 317.902344 556.726562 323.460938 563.363281 327.476562 C 570 331.488281 579.390625 337.21875 584.234375 340.203125 C 605.390625 353.25 622.652344 363.109375 627.667969 365.019531 L 629.234375 365.613281 L 629.234375 279.691406 L 623.203125 275.816406 C 619.882812 273.6875 614.527344 270.386719 611.300781 268.480469 C 608.070312 266.574219 602.054688 262.894531 597.929688 260.304688 C 593.804688 257.710938 587.054688 253.601562 582.929688 251.171875 C 578.804688 248.742188 569.414062 243.042969 562.058594 238.503906 C 545.3125 228.171875 540.308594 225.121094 530.101562 219.019531 C 513.15625 208.894531 505.71875 204.425781 485.753906 192.382812 C 439.394531 164.414062 426.519531 156.945312 424.667969 156.945312 C 424.277344 156.945312 423.816406 159.632812 423.570312 163.304688 M 383.015625 160.769531 C 380.492188 162.144531 367.726562 169.730469 354.644531 177.625 C 333.300781 190.507812 322.65625 197.019531 294.335938 214.511719 C 277 225.21875 265.441406 232.257812 258.476562 236.351562 C 254.535156 238.667969 249.398438 241.796875 247.0625 243.308594 C 241.375 246.988281 222.21875 258.824219 214.117188 263.664062 C 210.53125 265.808594 201.644531 271.214844 194.375 275.679688 L 181.152344 283.796875 L 181.328125 413.457031 L 181.507812 543.117188 L 183.136719 544.347656 C 184.035156 545.023438 188.289062 547.699219 192.59375 550.285156 C 214.753906 563.613281 229.058594 572.304688 234.335938 575.644531 C 237.5625 577.6875 246.808594 583.265625 254.878906 588.042969 C 262.949219 592.820312 273.808594 599.425781 279.011719 602.722656 C 284.210938 606.015625 295.804688 613.128906 304.769531 618.519531 C 313.738281 623.914062 329.734375 633.683594 340.316406 640.226562 C 350.898438 646.773438 363.078125 654.195312 367.382812 656.722656 C 371.6875 659.25 377.15625 662.566406 379.542969 664.089844 C 381.925781 665.613281 385.035156 667.449219 386.449219 668.171875 L 389.027344 669.488281 L 389.449219 657.371094 C 389.679688 650.707031 389.679688 629.160156 389.441406 609.488281 C 389.023438 574.320312 388.992188 573.699219 387.65625 572.5 C 385.628906 570.679688 377.414062 565.660156 331.183594 538 C 308.046875 524.15625 286.476562 511.15625 283.25 509.113281 C 280.019531 507.066406 273.417969 503.121094 268.574219 500.339844 C 263.734375 497.5625 259.402344 494.992188 258.957031 494.628906 C 258.332031 494.121094 258.140625 488.824219 258.140625 472.199219 L 258.140625 450.429688 L 389.050781 450.429688 L 389.480469 446.785156 C 389.914062 443.070312 389.84375 390.476562 389.386719 379.503906 L 389.136719 373.472656 L 258.125 373.472656 L 258.292969 351.207031 L 258.464844 328.945312 L 273.792969 319.679688 C 289.109375 310.421875 304.429688 301.171875 319.746094 291.929688 C 354.246094 271.109375 373.523438 259.359375 382.875 253.460938 L 389.238281 249.445312 L 389.070312 204.066406 C 388.960938 174.53125 388.675781 158.613281 388.25 158.476562 C 387.894531 158.363281 385.535156 159.394531 383.015625 160.769531 M 770.96875 850.914062 C 761.910156 852.007812 755.03125 855.523438 750.835938 861.199219 C 747.546875 865.644531 746.394531 870.148438 746.785156 877.003906 C 747.3125 886.253906 750.863281 892.414062 757.640625 895.835938 C 763.8125 898.953125 767.640625 899.730469 780.144531 900.425781 C 794.195312 901.207031 797.238281 901.574219 799.554688 902.773438 C 802.328125 904.207031 804.019531 906.832031 804.019531 909.699219 C 804.019531 912.988281 803.1875 914.496094 800.578125 915.921875 C 798.757812 916.917969 796.609375 917.070312 784.457031 917.070312 C 776.742188 917.070312 769.664062 916.851562 768.71875 916.589844 C 767.777344 916.324219 765.582031 914.929688 763.84375 913.492188 C 758.917969 909.421875 757.371094 909.140625 751.199219 911.199219 C 748.339844 912.152344 745.414062 913.421875 744.703125 914.023438 C 743.4375 915.089844 743.433594 915.183594 744.578125 918.496094 C 747 925.5 751.039062 929.636719 758.273438 932.515625 C 761.738281 933.894531 763.085938 933.992188 781.203125 934.214844 C 797.140625 934.410156 801.226562 934.273438 804.945312 933.410156 C 813.648438 931.390625 818.925781 927.242188 821.679688 920.253906 C 822.941406 917.054688 823.199219 915.167969 823.226562 908.90625 C 823.257812 901.683594 823.175781 901.226562 821.09375 896.988281 C 819.460938 893.671875 818.089844 891.953125 815.550781 890.039062 C 809.273438 885.3125 802.882812 883.78125 787.0625 883.210938 C 777.941406 882.882812 772.363281 882.019531 769.316406 880.464844 C 765.570312 878.550781 765.726562 871.175781 769.5625 869.042969 C 771.636719 867.890625 789.34375 867.476562 795.527344 868.433594 C 798.777344 868.941406 801.613281 869.914062 804.441406 871.496094 L 808.589844 873.8125 L 814.039062 871.472656 C 817.035156 870.1875 820.117188 869.132812 820.886719 869.132812 C 822.773438 869.132812 822.660156 867.886719 820.355469 863.320312 C 817.019531 856.710938 811.597656 853.09375 802.390625 851.324219 C 796.566406 850.207031 778.777344 849.976562 770.96875 850.914062 M -13.167969 854.296875 C -13.164062 855.820312 -12.972656 859.929688 -12.742188 863.425781 L -12.320312 869.785156 L 18.789062 869.785156 L 18.789062 933.734375 L 28.40625 933.554688 L 38.027344 933.375 L 37.824219 902.714844 C 37.714844 885.851562 37.816406 871.542969 38.058594 870.921875 C 38.453125 869.886719 39.84375 869.785156 53.421875 869.785156 L 68.351562 869.785156 L 68.351562 851.523438 L -13.171875 851.523438 Z M 87.265625 892.613281 L 87.265625 933.699219 L 106.832031 933.699219 L 106.832031 901.914062 L 120.859375 901.441406 C 128.578125 901.179688 138.292969 901.175781 142.457031 901.4375 L 150.023438 901.910156 L 149.785156 917.640625 L 149.550781 933.375 L 158.84375 933.554688 L 168.136719 933.738281 L 168.273438 922.140625 C 168.347656 915.765625 168.421875 897.269531 168.4375 881.039062 L 168.464844 851.53125 L 149.136719 851.523438 L 149.34375 867.667969 L 149.550781 883.808594 L 106.832031 884.152344 L 106.832031 851.523438 L 87.265625 851.523438 Z M 194.878906 892.613281 L 194.878906 933.699219 L 264.851562 933.699219 L 264.433594 928.710938 C 264.199219 925.964844 264.007812 922.296875 264.007812 920.558594 L 264.007812 917.394531 L 213.742188 917.394531 L 214.117188 901.417969 L 256.835938 901.074219 L 256.835938 884.804688 L 214.117188 884.460938 L 213.933594 877.125 L 213.75 869.785156 L 264.007812 869.785156 L 264.007812 851.523438 L 194.878906 851.523438 Z M 336.773438 892.449219 L 336.816406 933.375 L 356.050781 933.734375 L 355.84375 907.359375 C 355.671875 884.75 355.773438 881.09375 356.558594 881.742188 C 357.609375 882.613281 360.179688 885.648438 382.339844 912.179688 C 391.179688 922.761719 399.019531 931.929688 399.761719 932.558594 C 400.902344 933.523438 402.480469 933.699219 409.847656 933.699219 L 418.578125 933.699219 L 418.578125 851.523438 L 399.027344 851.523438 L 398.855469 877.726562 L 398.6875 903.925781 L 387.621094 890.605469 C 381.535156 883.28125 373.167969 873.324219 369.03125 868.480469 C 364.890625 863.640625 360.070312 857.84375 358.316406 855.601562 L 355.125 851.523438 L 345.925781 851.527344 L 336.730469 851.527344 Z M 443.359375 892.617188 L 443.359375 933.710938 L 479.070312 933.542969 L 514.777344 933.375 L 514.777344 917.722656 L 488.6875 917.394531 L 462.601562 917.070312 L 462.601562 901.417969 L 484.121094 901.246094 L 505.644531 901.078125 L 505.246094 884.804688 L 483.921875 884.632812 L 462.601562 884.460938 L 462.417969 877.125 L 462.230469 869.785156 L 488.300781 869.785156 C 505.757812 869.785156 514.511719 869.5625 514.792969 869.105469 C 515.027344 868.726562 515.007812 864.617188 514.75 859.972656 L 514.28125 851.523438 L 443.359375 851.523438 Z M 550.46875 865.710938 C 556.640625 873.511719 563.679688 882.203125 566.113281 885.027344 C 568.546875 887.851562 570.53125 890.34375 570.523438 890.570312 C 570.511719 890.796875 568.972656 892.796875 567.097656 895.015625 C 565.222656 897.230469 560.609375 902.785156 556.84375 907.355469 C 553.074219 911.925781 547.941406 917.996094 545.429688 920.847656 C 540.589844 926.339844 535.972656 932.375 535.972656 933.203125 C 535.972656 933.476562 541.359375 933.699219 547.945312 933.699219 L 559.917969 933.699219 L 562.128906 930.566406 C 563.347656 928.84375 568.449219 922.269531 573.472656 915.957031 C 580.671875 906.902344 582.789062 904.628906 583.476562 905.195312 C 583.957031 905.589844 586.613281 908.863281 589.382812 912.46875 C 592.957031 917.113281 596.546875 921.746094 600.152344 926.363281 L 605.886719 933.699219 L 629.277344 933.699219 L 627.136719 930.71875 C 619.996094 920.765625 597.035156 892.730469 595.554688 892.160156 C 594.378906 891.710938 594.429688 890.363281 595.660156 889.339844 C 596.207031 888.886719 601.179688 882.910156 606.714844 876.054688 C 612.25 869.199219 619.011719 860.875 621.746094 857.558594 L 626.710938 851.523438 L 601.929688 851.523438 L 595.574219 859.839844 C 587.734375 870.089844 582.914062 875.765625 582.257812 875.519531 C 581.652344 875.289062 575.179688 867.246094 568.328125 858.210938 L 563.261719 851.523438 L 539.25 851.523438 Z M 645.6875 884.296875 C 645.921875 921.472656 645.796875 920.507812 651.234375 926.558594 C 654.816406 930.542969 658.980469 932.765625 664.542969 933.671875 C 666.824219 934.039062 676.054688 934.34375 685.054688 934.347656 C 699.332031 934.351562 702.078125 934.183594 706.578125 933.039062 C 715.023438 930.886719 720.335938 926.496094 723.160156 919.328125 C 725.207031 914.132812 725.722656 905.757812 725.742188 877.449219 L 725.757812 851.523438 L 706.191406 851.523438 L 706.113281 855.925781 C 706.066406 858.347656 705.847656 871.824219 705.625 885.875 L 705.214844 911.425781 L 703.585938 913.167969 C 700.234375 916.75 699.203125 916.953125 684.019531 917 C 668.660156 917.050781 667.890625 916.890625 665.925781 913.300781 C 664.886719 911.398438 664.761719 908.398438 664.589844 881.363281 L 664.402344 851.523438 L 645.484375 851.523438 Z M -160.613281 980.019531 C -174.34375 982.148438 -187.648438 992.890625 -192.445312 1005.714844 C -195.339844 1013.453125 -195.90625 1019.328125 -195.617188 1038.613281 C -195.367188 1055.054688 -195.210938 1057.066406 -193.855469 1061.53125 C -189.316406 1076.464844 -183.015625 1083.988281 -170.101562 1089.90625 C -162.179688 1093.535156 -155.6875 1094.558594 -135.128906 1095.417969 C -127.058594 1095.753906 -119.304688 1096.367188 -117.898438 1096.777344 C -114.207031 1097.851562 -111.855469 1100.480469 -111.308594 1104.132812 C -110.546875 1109.203125 -111.253906 1130.105469 -112.246094 1131.964844 C -115.285156 1137.65625 -118.28125 1138.488281 -135.738281 1138.484375 C -150.867188 1138.484375 -152.589844 1138.078125 -154.988281 1133.925781 C -156.09375 1132.011719 -156.347656 1130.195312 -156.554688 1122.675781 L -156.800781 1113.703125 L -195.78125 1113.703125 L -195.78125 1126.785156 C -195.78125 1134.078125 -195.464844 1141.21875 -195.058594 1142.925781 C -194.664062 1144.609375 -193.03125 1148.726562 -191.433594 1152.074219 C -187.476562 1160.363281 -181.507812 1166.484375 -173.609375 1170.359375 C -164.480469 1174.835938 -162.019531 1175.109375 -133.210938 1174.871094 L -108.0625 1174.660156 L -102.847656 1172.894531 C -91.203125 1168.957031 -81.957031 1161.261719 -77.175781 1151.53125 C -72.835938 1142.699219 -72.273438 1138.648438 -72.320312 1116.640625 C -72.355469 1098.523438 -72.429688 1097.4375 -74.058594 1090.878906 C -75.976562 1083.136719 -79.75 1074.941406 -83.308594 1070.800781 C -84.625 1069.261719 -87.433594 1066.828125 -89.542969 1065.398438 C -98.710938 1059.171875 -105.316406 1057.75 -128.628906 1056.996094 C -138.148438 1056.691406 -147.136719 1056.113281 -148.601562 1055.71875 C -155.191406 1053.945312 -156.238281 1050.949219 -155.898438 1034.789062 C -155.6875 1024.757812 -155.570312 1023.882812 -154.152344 1021.898438 C -151.203125 1017.757812 -150.253906 1017.570312 -132.519531 1017.539062 C -115.054688 1017.511719 -114.519531 1017.609375 -112.269531 1021.296875 C -111.308594 1022.875 -111.003906 1024.578125 -111 1028.335938 L -111 1033.292969 L -91.921875 1033.652344 C -81.121094 1033.855469 -72.582031 1033.757812 -72.234375 1033.429688 C -71.328125 1032.570312 -72.84375 1017.160156 -74.441406 1010.984375 C -77.691406 998.40625 -84.644531 989.683594 -95.746094 984.269531 C -104.398438 980.050781 -106.039062 979.847656 -132.847656 979.640625 C -146.117188 979.539062 -158.613281 979.707031 -160.613281 980.019531 M -47.300781 979.789062 C -47.539062 980.027344 -47.734375 1024.050781 -47.734375 1077.617188 L -47.734375 1175.011719 L -8.277344 1175.011719 L -8.46875 1143.867188 C -8.574219 1126.742188 -8.425781 1109.058594 -8.140625 1104.574219 L -7.625 1096.421875 L -5.753906 1096.207031 C -2.894531 1095.878906 -0.5 1098.636719 10.316406 1114.683594 C 15.636719 1122.574219 23.125 1133.578125 26.960938 1139.140625 C 35.914062 1152.121094 43.9375 1164.292969 47.492188 1170.28125 L 50.296875 1175.011719 L 97.027344 1175.011719 L 94.039062 1169.957031 C 90.960938 1164.746094 74.359375 1140.457031 59.925781 1120.042969 C 55.226562 1113.398438 50.539062 1106.753906 45.851562 1100.105469 C 42.320312 1095.089844 38.765625 1090.097656 35.1875 1085.117188 C 31.515625 1080.023438 30.476562 1078.117188 30.761719 1076.980469 C 30.96875 1076.160156 32.800781 1072.863281 34.835938 1069.652344 C 40.046875 1061.425781 57.507812 1032.445312 67.039062 1016.203125 C 71.460938 1008.667969 76.90625 999.425781 79.144531 995.660156 C 84.464844 986.707031 87.5625 980.734375 87.113281 980.285156 C 86.550781 979.726562 50.625 979.617188 48.789062 980.171875 C 47.597656 980.53125 45.136719 983.804688 39.707031 992.238281 C 28.59375 1009.507812 7.582031 1043.054688 4.089844 1049.113281 C 0.0195312 1056.164062 -2.816406 1059.179688 -4.820312 1058.578125 C -8.433594 1057.496094 -8.261719 1059.359375 -8.472656 1018.238281 L -8.664062 980.210938 L -22.433594 979.78125 C -39.910156 979.238281 -46.753906 979.242188 -47.300781 979.789062 M 96.886719 979.8125 C 95.898438 979.96875 95.09375 980.273438 95.09375 980.496094 C 95.09375 981.332031 139.199219 1068.585938 146.828125 1082.839844 C 149.546875 1087.925781 152.300781 1093.207031 152.941406 1094.578125 C 154.015625 1096.871094 154.125 1100.210938 154.304688 1136.042969 L 154.5 1175.011719 L 194.113281 1175.011719 L 194.003906 1136.042969 L 193.898438 1097.074219 L 201.96875 1080.441406 C 206.40625 1071.296875 214.808594 1053.832031 220.636719 1041.636719 C 226.46875 1029.441406 234.226562 1013.300781 237.875 1005.765625 C 244.285156 992.535156 249.363281 980.796875 248.886719 980.320312 C 248.34375 979.777344 211.332031 979.320312 209.59375 979.835938 C 207.878906 980.34375 207.144531 981.589844 202.542969 991.78125 C 199.71875 998.039062 195.191406 1007.855469 192.476562 1013.59375 C 189.761719 1019.332031 186.425781 1026.671875 185.0625 1029.898438 C 180.765625 1040.066406 173.570312 1055.261719 172.953125 1055.46875 C 172.628906 1055.574219 171.074219 1052.65625 169.5 1048.976562 C 165.351562 1039.296875 147.847656 1002.28125 141.734375 990.269531 L 136.507812 979.992188 L 117.59375 979.761719 C 107.191406 979.636719 97.875 979.660156 96.886719 979.8125 M 348.378906 979.777344 C 347.3125 980.007812 346.574219 981.257812 345.238281 985.097656 C 344.277344 987.855469 341.191406 996.425781 338.382812 1004.136719 C 335.570312 1011.847656 330.578125 1026.082031 327.285156 1035.769531 C 321.535156 1052.664062 319.574219 1058.320312 304.984375 1100.007812 L 293.914062 1131.640625 C 291.402344 1138.8125 287.9375 1148.792969 286.210938 1153.8125 C 284.484375 1158.835938 282.15625 1165.285156 281.039062 1168.148438 C 279.921875 1171.007812 279.011719 1173.722656 279.011719 1174.179688 C 279.011719 1174.835938 283.347656 1175.011719 299.496094 1175.011719 L 319.984375 1175.011719 L 321.910156 1169.957031 C 322.96875 1167.175781 326.257812 1157.710938 329.214844 1148.921875 C 332.171875 1140.132812 334.855469 1132.777344 335.183594 1132.570312 C 336.082031 1132.007812 377.84375 1131.8125 386.953125 1132.332031 L 394.953125 1132.785156 L 400.855469 1149.820312 C 404.101562 1159.191406 407.195312 1168.574219 407.730469 1170.671875 C 408.265625 1172.769531 408.828125 1174.605469 408.976562 1174.757812 C 409.125 1174.90625 418.492188 1174.953125 429.792969 1174.855469 L 450.339844 1174.683594 L 446.46875 1163.921875 C 441.367188 1149.738281 429.476562 1115.601562 419.890625 1087.617188 C 409.640625 1057.683594 398.578125 1025.515625 390.851562 1003.160156 C 387.378906 993.113281 384.285156 984.0625 383.976562 983.039062 C 383.667969 982.019531 383.132812 980.84375 382.789062 980.433594 C 382.167969 979.683594 351.527344 979.101562 348.378906 979.777344 M 427.492188 985.613281 C 427.253906 989.164062 427.0625 997.71875 427.058594 1004.625 L 427.054688 1017.179688 L 434.71875 1017.183594 C 438.933594 1017.183594 450.085938 1017.375 459.503906 1017.613281 L 476.621094 1018.042969 L 476.621094 1175.011719 L 517.710938 1175.011719 L 517.710938 1017.832031 L 527.003906 1017.671875 C 532.117188 1017.582031 543.488281 1017.511719 552.277344 1017.507812 L 568.253906 1017.507812 L 568.253906 979.949219 L 427.917969 979.152344 Z M 588.636719 979.707031 C 588.367188 979.988281 588.148438 1024.050781 588.148438 1077.617188 L 588.148438 1175.011719 L 691.84375 1175.011719 L 691.84375 1135.878906 L 670.160156 1135.875 C 658.234375 1135.875 643.851562 1135.683594 638.203125 1135.449219 L 627.929688 1135.023438 L 627.929688 980.007812 L 620.207031 980.007812 C 615.960938 980.007812 607.230469 979.820312 600.804688 979.597656 C 594.378906 979.371094 588.90625 979.421875 588.636719 979.707031 M 772.59375 979.789062 C 770.253906 980.070312 770.140625 980.214844 768.175781 985.359375 C 767.070312 988.261719 763.992188 996.976562 761.34375 1004.722656 C 758.691406 1012.472656 754.847656 1023.359375 752.804688 1028.921875 C 750.757812 1034.480469 744.730469 1051.796875 739.40625 1067.398438 C 733.242188 1085.449219 727.058594 1103.496094 720.847656 1121.53125 C 715.960938 1135.699219 710.640625 1151.238281 709.023438 1156.0625 C 707.40625 1160.882812 705.078125 1166.820312 703.855469 1169.25 C 702.628906 1171.683594 701.628906 1173.972656 701.628906 1174.339844 C 701.628906 1174.785156 708.734375 1175.011719 722.675781 1175.011719 L 743.722656 1175.011719 L 746.761719 1166.042969 C 756.320312 1137.828125 758.15625 1133.050781 759.65625 1132.496094 C 760.464844 1132.195312 773.347656 1132.027344 788.28125 1132.121094 L 815.433594 1132.292969 L 818.269531 1140.445312 C 820.515625 1146.925781 822.75 1153.410156 824.96875 1159.902344 C 827.089844 1166.121094 829.273438 1172.070312 829.816406 1173.121094 L 830.804688 1175.03125 L 850.183594 1174.855469 L 869.566406 1174.683594 L 869.339844 1172.761719 C 869.214844 1171.703125 865.367188 1159.816406 860.789062 1146.347656 C 856.210938 1132.878906 848.589844 1110.117188 843.847656 1095.769531 C 839.109375 1081.421875 830.96875 1057.355469 825.761719 1042.289062 C 820.554688 1027.222656 813.652344 1007.121094 810.421875 997.613281 C 807.195312 988.109375 804.507812 980.289062 804.449219 980.238281 C 804.144531 979.960938 774.617188 979.542969 772.597656 979.789062 M 913.59375 980.117188 C 899.777344 982.089844 887.472656 990.503906 882.089844 1001.65625 C 878.183594 1009.757812 877.613281 1013.382812 877.257812 1032.515625 C 876.914062 1051.097656 877.53125 1057.28125 880.609375 1066.089844 C 884.027344 1075.875 891.714844 1084.746094 900.054688 1088.535156 C 910.332031 1093.199219 917.1875 1094.503906 936.285156 1095.425781 C 955.589844 1096.355469 956.355469 1096.472656 959.011719 1098.921875 C 960.929688 1100.691406 961.347656 1101.636719 961.957031 1105.550781 C 962.363281 1108.171875 962.53125 1114.433594 962.347656 1120.238281 C 962.074219 1128.988281 961.835938 1130.738281 960.597656 1133.167969 C 958.109375 1138.046875 956.386719 1138.457031 938.371094 1138.472656 C 921.511719 1138.488281 920.039062 1138.199219 917.222656 1134.367188 C 916.03125 1132.746094 915.847656 1131.410156 915.660156 1123.117188 L 915.449219 1113.703125 L 875.761719 1113.703125 L 875.773438 1122.347656 C 875.816406 1152.042969 883.957031 1165.972656 905.4375 1173.121094 C 909.863281 1174.59375 910.808594 1174.644531 936.476562 1174.863281 C 961.808594 1175.078125 963.191406 1175.027344 968.4375 1173.691406 C 983.375 1169.882812 994.308594 1160.179688 998.859375 1146.691406 L 1000.636719 1141.421875 L 1000.644531 1116.964844 C 1000.65625 1095.078125 1000.527344 1092.027344 999.429688 1087.941406 C 997.90625 1082.25 993.949219 1073.621094 991.59375 1070.84375 C 988.957031 1067.734375 980.839844 1062.546875 976.105469 1060.945312 C 970.089844 1058.910156 955.148438 1057.113281 938.628906 1056.445312 C 918.988281 1055.644531 917.632812 1054.90625 916.113281 1044.148438 C 915.191406 1037.628906 916.179688 1024.496094 917.773438 1022.0625 C 918.351562 1021.179688 920.066406 1019.804688 921.585938 1019.007812 C 924.210938 1017.625 925.113281 1017.550781 939.675781 1017.53125 C 953.050781 1017.511719 955.265625 1017.652344 957.082031 1018.644531 C 960.527344 1020.527344 961.199219 1022.070312 961.199219 1028.085938 L 961.199219 1033.484375 L 969.839844 1033.488281 C 974.59375 1033.488281 983.542969 1033.683594 989.730469 1033.914062 L 1000.980469 1034.34375 L 1000.980469 1029.835938 C 1000.976562 1018.625 998.230469 1006.152344 993.996094 998.089844 C 991.207031 992.785156 986.398438 988.234375 980.179688 985.007812 C 974.070312 981.839844 970.25 980.742188 962.816406 980.019531 C 954.707031 979.230469 919.3125 979.304688 913.59375 980.117188 M 1006.679688 986.917969 C 1006.464844 987.132812 1006.453125 987.734375 1006.652344 988.253906 C 1006.910156 988.925781 1007.566406 989.082031 1008.890625 988.792969 L 1010.765625 988.378906 L 1010.765625 994.300781 C 1010.765625 999.789062 1010.859375 1000.222656 1012.070312 1000.222656 C 1013.265625 1000.222656 1013.371094 999.789062 1013.371094 995.007812 C 1013.371094 989.820312 1013.382812 989.789062 1015.074219 989.789062 C 1016.355469 989.789062 1016.675781 989.535156 1016.378906 988.757812 C 1016.160156 988.191406 1015.980469 987.457031 1015.980469 987.125 C 1015.980469 986.476562 1007.316406 986.28125 1006.679688 986.917969 M 1017.285156 993.375 C 1017.285156 999.789062 1017.367188 1000.222656 1018.589844 1000.222656 C 1019.753906 1000.222656 1019.894531 999.789062 1019.894531 996.1875 C 1019.894531 992.480469 1019.976562 992.253906 1020.863281 993.414062 C 1021.394531 994.109375 1022.023438 995.804688 1022.261719 997.179688 C 1022.550781 998.882812 1023.125 999.847656 1024.0625 1000.203125 C 1025.976562 1000.925781 1026.199219 1000.664062 1026.582031 997.238281 C 1026.769531 995.578125 1027.398438 993.746094 1027.976562 993.167969 C 1028.941406 992.203125 1029.027344 992.46875 1029.027344 996.496094 L 1029.027344 1000.875 L 1031.050781 1000.875 C 1032.683594 1000.875 1032.996094 1000.660156 1032.65625 999.777344 C 1032.425781 999.175781 1032.054688 995.933594 1031.835938 992.574219 C 1031.464844 986.921875 1031.335938 986.476562 1030.117188 986.660156 C 1029.320312 986.777344 1028.183594 988.019531 1027.25 989.789062 C 1024.957031 994.132812 1024.722656 994.179688 1022.910156 990.601562 C 1021.328125 987.480469 1020.230469 986.527344 1018.210938 986.527344 C 1017.472656 986.527344 1017.285156 987.898438 1017.285156 993.375 M 1014.777344 995.660156 C 1014.65625 998.574219 1014.84375 1000.222656 1015.285156 1000.222656 C 1015.710938 1000.222656 1015.980469 998.457031 1015.980469 995.660156 C 1015.980469 993.148438 1015.753906 991.09375 1015.472656 991.09375 C 1015.191406 991.09375 1014.878906 993.148438 1014.777344 995.660156 M 362.984375 1049.628906 C 361.328125 1053.421875 348.792969 1090.863281 348.792969 1092.023438 C 348.792969 1092.777344 379.742188 1092.757812 380.496094 1092.003906 C 381.378906 1091.121094 379.773438 1085.804688 373.257812 1068.050781 C 369.769531 1058.546875 366.59375 1049.667969 366.199219 1048.324219 C 365.804688 1046.976562 365.289062 1045.878906 365.054688 1045.878906 C 364.816406 1045.878906 363.886719 1047.566406 362.984375 1049.628906 M 778.503906 1069.625 L 770.917969 1091.988281 L 779.746094 1092.410156 C 791.914062 1092.996094 801.921875 1092.941406 802.324219 1092.289062 C 802.507812 1091.992188 801.195312 1087.808594 799.40625 1082.996094 C 797.617188 1078.183594 794.101562 1068.382812 791.589844 1061.21875 C 789.078125 1054.050781 786.8125 1047.980469 786.554688 1047.726562 C 786.296875 1047.472656 782.671875 1057.328125 778.503906 1069.625 M 108.4375 1241.691406 C 108.265625 1242.140625 108.199219 1261.441406 108.292969 1284.578125 L 108.464844 1326.644531 L 177.269531 1326.980469 L 177.269531 1310.027344 L 152.324219 1309.859375 L 127.375 1309.6875 L 127.375 1292.730469 L 168.789062 1292.386719 L 168.789062 1276.117188 L 127.375 1275.773438 L 127.195312 1267.117188 L 127.011719 1258.460938 L 151.976562 1258.507812 L 176.941406 1258.550781 L 176.941406 1241.207031 L 142.847656 1241.039062 C 115.917969 1240.90625 108.6875 1241.042969 108.4375 1241.691406 M 211.183594 1241.769531 C 201.039062 1243.972656 195.765625 1249.640625 193.847656 1260.40625 C 192.53125 1267.785156 192.597656 1303.007812 193.9375 1308.699219 C 196.230469 1318.421875 202.898438 1324.714844 212.570312 1326.285156 C 214.863281 1326.65625 227.03125 1326.960938 239.714844 1326.964844 L 262.707031 1326.96875 L 262.707031 1310.078125 L 240.25 1309.882812 C 209.859375 1309.617188 212.300781 1311.847656 212.226562 1284.269531 C 212.171875 1263.613281 212.28125 1262.902344 215.957031 1260.179688 C 217.742188 1258.859375 218.5 1258.816406 240.25 1258.816406 L 262.703125 1258.816406 L 262.703125 1249.847656 L 262.707031 1240.882812 L 238.738281 1240.9375 C 222.789062 1240.972656 213.570312 1241.25 211.183594 1241.769531 M 276.402344 1283.925781 L 276.402344 1326.96875 L 286.019531 1326.96875 L 295.640625 1326.972656 L 295.4375 1312.132812 C 295.328125 1303.972656 295.414062 1296.339844 295.632812 1295.175781 L 296.027344 1293.054688 L 336.402344 1293.054688 L 336.402344 1326.96875 L 355.976562 1326.96875 L 355.808594 1284.089844 L 355.640625 1241.207031 L 346.023438 1241.027344 L 336.402344 1240.847656 L 336.402344 1275.652344 L 324.558594 1275.222656 C 318.042969 1274.988281 308.800781 1274.792969 304.015625 1274.792969 L 295.316406 1274.792969 L 295.316406 1240.882812 L 276.402344 1240.882812 Z M 390.613281 1241.59375 C 383.34375 1242.847656 377.160156 1246.824219 374.605469 1251.882812 C 371.644531 1257.738281 371.316406 1261.152344 371.414062 1284.902344 C 371.496094 1305.160156 371.617188 1307.433594 372.816406 1311.207031 C 375.183594 1318.671875 378.726562 1322.324219 386.304688 1325.109375 C 389.90625 1326.433594 391.644531 1326.5625 408.90625 1326.816406 C 419.859375 1326.976562 429.375 1326.8125 431.875 1326.421875 C 443.816406 1324.5625 451.269531 1317.367188 453.128906 1305.902344 C 453.964844 1300.765625 453.992188 1266.582031 453.167969 1261.542969 C 451.984375 1254.320312 448.421875 1248.367188 443.359375 1245.152344 C 437.621094 1241.507812 436.105469 1241.296875 414.339844 1241.136719 C 403.21875 1241.050781 392.542969 1241.257812 390.613281 1241.589844 M 522.929688 1241.300781 C 517.066406 1242.199219 513.378906 1243.863281 510.179688 1247.054688 C 504.800781 1252.414062 504.546875 1253.867188 504.191406 1280.992188 C 503.941406 1300.257812 504.054688 1304.503906 504.925781 1308.234375 C 507.421875 1318.917969 512.851562 1324.460938 522.585938 1326.257812 C 524.886719 1326.683594 535.558594 1326.96875 549.199219 1326.96875 L 571.972656 1326.96875 L 571.746094 1318.652344 L 571.515625 1310.339844 L 549.554688 1310.011719 L 527.597656 1309.6875 L 525.914062 1308.105469 C 524.988281 1307.234375 523.9375 1305.472656 523.582031 1304.191406 C 523.222656 1302.898438 522.9375 1293.597656 522.941406 1283.273438 C 522.949219 1263.28125 523.039062 1262.679688 526.398438 1260.183594 C 528.175781 1258.863281 529.003906 1258.8125 549.878906 1258.726562 L 571.515625 1258.636719 L 571.394531 1249.921875 L 571.277344 1241.207031 L 547.917969 1241.128906 C 535.070312 1241.085938 523.824219 1241.164062 522.929688 1241.300781 M 602.722656 1242.144531 C 600.15625 1242.835938 596.914062 1243.980469 595.519531 1244.695312 C 589.617188 1247.703125 585.363281 1254.84375 584.1875 1263.707031 C 583.191406 1271.207031 583.46875 1303.25 584.566406 1307.914062 C 587.097656 1318.644531 593.460938 1324.757812 603.765625 1326.355469 C 606.851562 1326.835938 615.351562 1327.003906 627.851562 1326.832031 C 645.542969 1326.589844 647.457031 1326.453125 650.574219 1325.207031 C 657.410156 1322.480469 662.066406 1317.167969 664.191406 1309.679688 C 665.632812 1304.601562 666.320312 1269.457031 665.128906 1261.769531 C 663.683594 1252.421875 658.804688 1245.855469 651.050781 1242.808594 C 647.332031 1241.351562 646.332031 1241.277344 627.277344 1241.089844 C 609.3125 1240.910156 606.933594 1241.011719 602.722656 1242.144531 M 684.019531 1283.875 L 684.019531 1326.96875 L 702.933594 1326.96875 L 702.933594 1300.230469 L 713.089844 1300.230469 C 722.804688 1300.230469 723.304688 1300.292969 724.550781 1301.699219 C 725.269531 1302.503906 728.46875 1308.28125 731.660156 1314.53125 C 734.855469 1320.78125 737.839844 1326.132812 738.296875 1326.421875 C 738.753906 1326.710938 743.742188 1326.953125 749.382812 1326.960938 L 759.636719 1326.96875 L 757.632812 1323.570312 C 756.53125 1321.699219 753.765625 1316.492188 751.488281 1311.992188 C 749.210938 1307.496094 746.589844 1302.582031 745.664062 1301.074219 L 743.980469 1298.328125 L 745.945312 1297.308594 C 754.023438 1293.132812 757.042969 1285.851562 757.042969 1270.554688 C 757.042969 1254.070312 753.472656 1246.695312 743.585938 1242.761719 C 739.851562 1241.277344 739.257812 1241.246094 711.898438 1241.015625 L 684.019531 1240.78125 Z M 775.320312 1241.207031 C 775.316406 1241.386719 775.3125 1260.683594 775.308594 1284.089844 L 775.304688 1326.644531 L 784.769531 1326.824219 L 794.238281 1327.003906 L 794.238281 1302.320312 L 812.988281 1302.046875 C 830.699219 1301.789062 831.953125 1301.6875 835.597656 1300.261719 C 846.261719 1296.085938 850.304688 1286.929688 849.457031 1268.855469 C 848.957031 1258.113281 847.402344 1253.15625 843.050781 1248.390625 C 839.488281 1244.496094 835.671875 1242.585938 829.414062 1241.570312 C 825.269531 1240.898438 775.328125 1240.5625 775.320312 1241.207031 M 67.878906 1257.667969 L 63.167969 1257.894531 L 55.203125 1269.929688 C 50.824219 1276.550781 47.070312 1281.96875 46.863281 1281.96875 C 46.65625 1281.96875 44.882812 1279.402344 42.921875 1276.261719 C 40.394531 1272.226562 37.847656 1268.207031 35.28125 1264.195312 L 31.199219 1257.835938 L 16.253906 1257.835938 L 21.007812 1265.5 C 24.894531 1271.746094 28.792969 1277.980469 32.710938 1284.203125 L 39.65625 1295.242188 L 39.65625 1316.535156 L 54.085938 1316.535156 L 53.941406 1305.839844 L 53.792969 1295.144531 L 61.976562 1282.523438 C 69.542969 1270.855469 77.484375 1258.003906 77.484375 1257.429688 C 77.484375 1257.296875 76.382812 1257.242188 75.039062 1257.316406 C 73.691406 1257.386719 70.472656 1257.546875 67.878906 1257.667969 M -39.910156 1287.199219 L -39.910156 1316.632812 L -19.527344 1316.394531 C -4.945312 1316.226562 1.410156 1315.921875 2.808594 1315.328125 C 7.996094 1313.125 12.246094 1306.367188 12.257812 1300.304688 C 12.269531 1294.78125 11.125 1291.996094 7.570312 1288.886719 L 4.421875 1286.132812 L 7.265625 1283.167969 C 9.683594 1280.644531 10.167969 1279.675781 10.519531 1276.683594 C 11.488281 1268.4375 8.859375 1262.78125 2.484375 1259.382812 C 0.421875 1258.28125 -1.757812 1258.144531 -19.855469 1257.964844 L -39.910156 1257.769531 Z M 794.238281 1271.695312 L 794.238281 1285.230469 L 808.761719 1285.230469 C 824.953125 1285.230469 826.613281 1284.863281 829.03125 1280.746094 C 830.757812 1277.808594 830.792969 1265.179688 829.082031 1262.550781 C 826.570312 1258.691406 825.875 1258.558594 807.445312 1258.328125 L 794.238281 1258.164062 Z M 398.359375 1259.066406 C 394.765625 1259.632812 392.804688 1260.664062 391.480469 1262.6875 C 390.625 1263.992188 390.476562 1267.167969 390.492188 1283.402344 C 390.503906 1295.667969 390.773438 1303.328125 391.234375 1304.648438 C 391.65625 1305.859375 392.941406 1307.328125 394.332031 1308.1875 C 396.546875 1309.554688 397.609375 1309.675781 409.46875 1309.910156 C 427.78125 1310.269531 430.664062 1309.457031 433.28125 1303.195312 C 434.171875 1301.066406 434.363281 1297.785156 434.429688 1283.640625 C 434.507812 1267.949219 434.414062 1266.445312 433.230469 1264.074219 C 430.710938 1259.03125 430.019531 1258.828125 414.78125 1258.707031 C 407.363281 1258.648438 399.972656 1258.808594 398.359375 1259.066406 M 610.570312 1259.0625 C 606.625 1259.753906 604.613281 1261.339844 603.789062 1264.402344 C 603.324219 1266.121094 603.144531 1273.539062 603.273438 1285.46875 C 603.550781 1311.101562 602.300781 1309.6875 624.703125 1309.6875 C 641.597656 1309.6875 642.40625 1309.53125 644.613281 1305.886719 C 645.777344 1303.964844 645.867188 1302.386719 645.867188 1283.898438 C 645.867188 1257.121094 647.207031 1258.902344 626.953125 1258.714844 C 619.417969 1258.648438 612.046875 1258.800781 610.570312 1259.0625 M 702.933594 1270.902344 L 702.933594 1283.4375 L 717.855469 1283.15625 C 734.816406 1282.835938 735.375 1282.679688 737.578125 1277.703125 C 738.636719 1275.300781 738.769531 1274 738.40625 1269.445312 C 738.171875 1266.46875 737.539062 1263.277344 737.007812 1262.347656 C 735.082031 1258.992188 734.351562 1258.847656 718.09375 1258.597656 L 702.933594 1258.367188 Z M -28.171875 1274.792969 L -28.171875 1281.316406 L -17.898438 1281.3125 C -3.460938 1281.308594 -1.429688 1280.542969 -1.429688 1275.121094 C -1.429688 1269.265625 -3.792969 1268.273438 -17.714844 1268.273438 L -28.171875 1268.273438 Z M -28.171875 1298.597656 L -28.171875 1305.449219 L -16.921875 1305.371094 C -2.953125 1305.273438 -2.105469 1305.109375 -0.519531 1302.148438 C 1.015625 1299.292969 0.542969 1295.925781 -1.742188 1293.460938 L -3.324219 1291.75 L -28.171875 1291.75 Z M -28.171875 1298.597656 " fill-opacity="1" fill-rule="evenodd"/></svg>