<?xml version="1.0" encoding="utf-8"?>
<!-- ECHO CORP Welcome Icon - White -->
<svg version="1.1" xmlns="http://www.w3.org/2000/svg" xmlns:xlink="http://www.w3.org/1999/xlink" x="0px" y="0px"
	 viewBox="0 0 141.7 141.7" style="enable-background:new 0 0 141.7 141.7;" xml:space="preserve">
<style type="text/css">
	.st0{fill:#FFFFFF;}
	.st1{fill:#00E6E6;}
	.st2{fill:none;stroke:#00E6E6;stroke-width:2;opacity:0.4;}
</style>
<defs>
	<radialGradient id="glow" cx="50%" cy="50%" r="50%">
		<stop offset="0%" style="stop-color:#00E6E6;stop-opacity:0.6" />
		<stop offset="100%" style="stop-color:#00E6E6;stop-opacity:0" />
	</radialGradient>
</defs>
<g>
	<!-- Glow circle -->
	<circle cx="70.85" cy="70.85" r="55" class="st2"/>
	<!-- E letter -->
	<path class="st0" d="M35,45h30v10H50v8h12v10H50v12h15v10H35V45z"/>
	<!-- C letter with neon accent -->
	<path class="st1" d="M72,45h22c7,0,13,6,13,13v30c0,7-6,13-13,13H72c-7,0-13-6-13-13V58C59,51,65,45,72,45z M72,55v28h22V55H72z"/>
	<!-- Abstract circuit pattern -->
	<line x1="30" y1="105" x2="45" y2="105" style="stroke:#00E6E6;stroke-width:1.5;opacity:0.5"/>
	<circle cx="48" cy="105" r="2" style="fill:#00E6E6;opacity:0.6"/>
	<line x1="51" y1="105" x2="65" y2="105" style="stroke:#00E6E6;stroke-width:1.5;opacity:0.5"/>
	<line x1="75" y1="105" x2="90" y2="105" style="stroke:#00E6E6;stroke-width:1.5;opacity:0.5"/>
	<circle cx="93" cy="105" r="2" style="fill:#00E6E6;opacity:0.6"/>
	<line x1="96" y1="105" x2="110" y2="105" style="stroke:#00E6E6;stroke-width:1.5;opacity:0.5"/>
</g>
</svg>
